<?xml version="1.0" encoding="utf-8"?>
<!-- Generator: Adobe Illustrator 25.4.1, SVG Export Plug-In . SVG Version: 6.00 Build 0)  -->
<svg version="1.1" id="Calque_1" xmlns="http://www.w3.org/2000/svg" xmlns:xlink="http://www.w3.org/1999/xlink" x="0px" y="0px"
	 width="37.7px" height="40.8px" viewBox="0 0 37.7 40.8" style="enable-background:new 0 0 37.7 40.8;" xml:space="preserve">
<g>
	<path d="M6.2,22.3l25.2-0.1c0,0,2.2-19.4-12.7-19.3C3.8,3,6.2,22.3,6.2,22.3z"/>
	<path d="M24.5,0L34,10.6C31.7,1.3,24.5,0,24.5,0z"/>
	<path d="M3.1,10.7l9.4-10.7C12.5,0.1,5.3,1.4,3.1,10.7z"/>
	<path d="M37.5,33.8c0.8-3.8-1.1-7.7-4.7-9.3l0,0L5,24.7C-2,27,0.4,34,0.4,34l14.4-0.1c-0.8,1.4-0.8,3.2,0,4.6
		c1.3,2.2,4.1,3,6.3,1.7c2.2-1.3,3-4.1,1.7-6.3l-6.8,0l6.4,0L37.5,33.8z"/>
</g>
</svg>
