<?xml version="1.0" encoding="utf-8"?>
<!-- Generator: Adobe Illustrator 25.4.1, SVG Export Plug-In . SVG Version: 6.00 Build 0)  -->
<svg version="1.1" id="Groupe_79" xmlns="http://www.w3.org/2000/svg" xmlns:xlink="http://www.w3.org/1999/xlink" x="0px" y="0px"
	 width="12.2px" height="16px" viewBox="0 0 12.2 16" style="enable-background:new 0 0 12.2 16;" xml:space="preserve">
<g>
	<polygon points="10.1,15 7,15.5 10.1,15.7 	"/>
	<polygon points="10.8,0.8 10.3,0.8 10.7,3.1 	"/>
	<polygon points="0.6,0.4 0.6,1.3 5.1,0.6 	"/>
	<polygon points="0,15.2 2.1,15.3 0.5,4.7 	"/>
</g>
<path d="M10,0L0.2,1.5L2.4,16l9.8-1.5L10,0z M1.5,3.8l7.9-1.2l0,0.2L1.5,4L1.5,3.8z M1.6,4.4l7.9-1.2l0,0.2L1.6,4.6L1.6,4.4z M1.7,5
	l7.9-1.2l0,0.2L1.7,5.2L1.7,5z M1.9,5.7l7.9-1.2l0,0.2L1.9,5.9L1.9,5.7z M2,6.3L9.9,5l0,0.2L2,6.5L2,6.3z M2.1,6.9L10,5.7l0,0.2
	L2.1,7.1L2.1,6.9z M2.2,7.6l7.9-1.2l0,0.2L2.3,7.8L2.2,7.6z M2.3,8.4l0-0.2l7.9-1.2l0,0.2L2.3,8.4z M2.4,8.8l7.9-1.2l0,0.2L2.5,9
	L2.4,8.8z M2.6,9.5l7.9-1.2l0,0.2L2.6,9.7L2.6,9.5z M2.7,10.1l7.9-1.2l0,0.2l-7.9,1.2L2.7,10.1z M2.8,10.7l7.9-1.2l0,0.2l-7.9,1.2
	L2.8,10.7z M7.8,12.4l3.3-0.5l0,0.2l-3.3,0.5L7.8,12.4z M7.9,13.1l3.3-0.5l0,0.2l-3.3,0.5L7.9,13.1z M8.9,13.6l2.4-0.4l0,0.2
	l-2.4,0.4L8.9,13.6z"/>
</svg>
