<?xml version="1.0" encoding="utf-8"?>
<!-- Generator: Adobe Illustrator 25.4.1, SVG Export Plug-In . SVG Version: 6.00 Build 0)  -->
<svg version="1.1" id="Groupe_89" xmlns="http://www.w3.org/2000/svg" xmlns:xlink="http://www.w3.org/1999/xlink" x="0px" y="0px"
	 width="11.3px" height="15.1px" viewBox="0 0 11.3 15.1" style="enable-background:new 0 0 11.3 15.1;" xml:space="preserve">
<g>
	<path d="M4.8,11.3c0.1,0.2,0.4,0.4,0.6,0.4s0.5-0.1,0.6-0.4l3.6-6.2c0.2-0.4,0.1-0.8-0.3-1C9,3.9,8.6,4,8.4,4.4L6.2,8.2V0.8
		C6.2,0.3,5.9,0,5.4,0S4.7,0.3,4.7,0.8v7.4L2.5,4.4C2.3,4,1.8,3.9,1.5,4.1C1.1,4.3,1,4.8,1.2,5.1L4.8,11.3z"/>
	<path d="M10.6,13.6H0.8c-0.4,0-0.8,0.3-0.8,0.8s0.3,0.8,0.8,0.8h9.8c0.4,0,0.8-0.3,0.8-0.8S11,13.6,10.6,13.6z"/>
</g>
</svg>
