<?xml version="1.0" encoding="utf-8"?>
<!-- Generator: Adobe Illustrator 25.4.1, SVG Export Plug-In . SVG Version: 6.00 Build 0)  -->
<svg version="1.1" id="Calque_1" xmlns="http://www.w3.org/2000/svg" xmlns:xlink="http://www.w3.org/1999/xlink" x="0px" y="0px"
	 width="47.8px" height="30.3px" viewBox="0 0 47.8 30.3" style="enable-background:new 0 0 47.8 30.3;" xml:space="preserve">
<path d="M1.5,0.1L45.7,0c0.4,0,0.7,0,0.9,0C28.8,17.6,24.9,19,24.4,19.1h0C20.5,18.4,6.8,5.9,0.9,0.1C1.1,0.1,1.3,0.1,1.5,0.1z
	 M47.4,29.8c-0.2,0.2-0.5,0.2-0.7,0.2L2.1,30.3c-0.5,0.1-1,0-1.5-0.3c-0.2-0.2-0.3-0.4-0.3-0.7L0,1.4c2.6,2.5,8.9,8.5,14.6,13.1
	L3.2,26.4l1.1,1l11.6-12c3.5,2.8,6.6,4.9,8.3,5.2l0.1,0v0c0,0,0,0,0,0c1.2,0,3.9-1.8,8-5.2L43.2,27l1.1-1L33.4,14.4
	c3.8-3.2,8.5-7.7,14.2-13.3c0,0.2,0,0.3,0,0.3l0.2,27.7C47.8,29.4,47.6,29.7,47.4,29.8z"/>
</svg>
