<?xml version="1.0" encoding="utf-8"?>
<!-- Generator: Adobe Illustrator 25.4.1, SVG Export Plug-In . SVG Version: 6.00 Build 0)  -->
<svg version="1.1" id="Calque_1" xmlns="http://www.w3.org/2000/svg" xmlns:xlink="http://www.w3.org/1999/xlink" x="0px" y="0px"
	 width="24.8px" height="24.2px" viewBox="0 0 24.8 24.2" style="enable-background:new 0 0 24.8 24.2;" xml:space="preserve">
<path d="M23.9,3.6c-0.1-0.1-0.1-0.2-0.2-0.3c-1.4-2.5-4.4-3.7-7.2-3c-1.5,0.4-2.8,1.2-3.8,2.3c-0.1,0.1-0.2,0.2-0.3,0.4
	c-0.9-1.2-2.2-2.1-3.6-2.6C7.3-0.2,5.7-0.1,4.2,0.5C2.9,1,1.8,2,1.1,3.2c-3.4,5.6,1.7,12.2,5,15.6C7,19.7,8,20.6,9,21.5l0.6,0.5
	c0.5,0.4,1.3,1.1,1.7,1.5c0.2,0.2,0.4,0.3,0.5,0.5c0.2,0.1,0.3,0.2,0.5,0.2c0.1,0,0.3,0,0.4-0.1c0.1-0.1,0.2-0.2,0.3-0.3
	c0.1-0.1,0.6-0.5,0.9-0.7c0.4-0.3,0.9-0.7,1.1-0.9l0.6-0.6c1-0.9,2-1.8,3-2.8c1.7-1.8,3.1-3.7,4.3-5.9l0.6-1
	c0.3-0.5,0.5-1.1,0.7-1.7c0.2-0.7,0.4-1.4,0.4-2.2C24.9,6.5,24.6,5,23.9,3.6z"/>
</svg>
