<?xml version="1.0" encoding="utf-8"?>
<!-- Generator: Adobe Illustrator 25.4.1, SVG Export Plug-In . SVG Version: 6.00 Build 0)  -->
<svg version="1.1" id="Calque_1" xmlns="http://www.w3.org/2000/svg" xmlns:xlink="http://www.w3.org/1999/xlink" x="0px" y="0px"
	 width="24.8px" height="24.8px" viewBox="0 0 24.8 24.8" style="enable-background:new 0 0 24.8 24.8;" xml:space="preserve">
<rect id="Rectangle_128" x="0.4" y="8.1" width="5.2" height="16.5"/>
<path id="Tracé_177" d="M19.6,7.8c-0.2,0-0.4,0-0.6,0c-2-0.1-3.9,0.8-5.1,2.3c-0.1,0.1-0.2,0.2-0.2,0.3V8.2h-5v16.5h5.2v-7.8
	c-0.1-1.1,0-2.3,0.5-3.3c0.5-0.8,1.4-1.3,2.3-1.3c1.5-0.1,2.8,1,2.9,2.6c0,0.1,0,0.2,0,0.3v9.6h5.2V14C24.8,10.3,22.9,8.1,19.6,7.8"
	/>
<path id="Tracé_178" d="M6,3c0,1.7-1.3,3-3,3S0,4.7,0,3s1.3-3,3-3S6,1.3,6,3"/>
</svg>
