<?xml version="1.0" encoding="utf-8"?>
<!-- Generator: Adobe Illustrator 25.4.1, SVG Export Plug-In . SVG Version: 6.00 Build 0)  -->
<svg version="1.1" id="Calque_1" xmlns="http://www.w3.org/2000/svg" xmlns:xlink="http://www.w3.org/1999/xlink" x="0px" y="0px"
	 width="12px" height="13.1px" viewBox="0 0 12 13.1" style="enable-background:new 0 0 12 13.1;" xml:space="preserve">
<path id="Tracé_146" d="M8.5,3c4,2.6,2.3,9-2.5,9s-6.5-6.4-2.5-9c0.6-0.4,0-1.4-0.6-1C0.6,3.4-0.4,6.1,0.2,8.6
	c0.7,2.6,3.1,4.4,5.8,4.5c2.7,0,5-1.8,5.8-4.3c0.7-2.6-0.3-5.4-2.6-6.8C8.5,1.6,7.9,2.6,8.5,3"/>
<path id="Tracé_147" d="M6.7,6.4V0.6C6.7,0.2,6.5,0,6.2,0C5.8,0,5.6,0.2,5.6,0.6v5.9C5.6,6.8,5.8,7,6.2,7C6.5,7,6.7,6.8,6.7,6.4"/>
</svg>
