<?xml version="1.0" encoding="utf-8"?>
<!-- Generator: Adobe Illustrator 25.4.1, SVG Export Plug-In . SVG Version: 6.00 Build 0)  -->
<svg version="1.1" id="Calque_1" xmlns="http://www.w3.org/2000/svg" xmlns:xlink="http://www.w3.org/1999/xlink" x="0px" y="0px"
	 width="18px" height="12px" viewBox="0 0 18 12" style="enable-background:new 0 0 18 12;" xml:space="preserve">
<path d="M17.8,2.6c0,0-0.2-1.2-0.7-1.7c-0.7-0.7-1.4-0.7-1.8-0.7C12.8,0,9,0,9,0S5.2,0,2.7,0.2c-0.4,0-1.1,0-1.8,0.7
	C0.4,1.4,0.2,2.6,0.2,2.6S0,4,0,5.3v1.3C0,8,0.2,9.4,0.2,9.4s0.2,1.2,0.7,1.7c0.7,0.7,1.6,0.7,2,0.7C4.3,12,8.9,12,9,12
	c0,0,3.8,0,6.3-0.2c0.4,0,1.1,0,1.8-0.7c0.5-0.5,0.7-1.7,0.7-1.7S18,8,18,6.6V5.3C18,4,17.8,2.6,17.8,2.6z M7.2,8.4V3.6L12,6
	L7.2,8.4z"/>
</svg>
