<svg xmlns="http://www.w3.org/2000/svg" xmlns:xlink="http://www.w3.org/1999/xlink" version="1.1" id="Calque_1" x="0px" y="0px" viewBox="0 0 205 47.4" style="enable-background:new 0 0 205 47.4;" xml:space="preserve">
<path id="Tracé_7052" style="fill:#00517B;" d="M24.3,3.7c0.7-0.1,1.5-0.1,2.2-0.1c0.6,0.7,1,1.5,1.2,2.4c0.7,2.1,1.6,5.3,2.7,8.8  c0.7,2.1,1.3,4.6,2.1,7.1c0.1,0.3,0.2,0.6,0.3,0.9c0.7,2.8,1,3.7,1.7,6.5c0.3-1,0.6-2,0.8-3.1c0.3-1.3,0.6-2.7,1-4.2  c2.4-7.6,4-12.9,5.3-17.7l0.3-0.9l-0.1,0.1c0.1-0.3,0.2-0.5,0.4-0.7c0.3-0.3,0.8-0.3,1.8-0.3c0.3,0,0.5,0.1,0.7,0.1  c0.5,0,1,0,1.5,0.1c0.8,0,1.5,0.1,2.3,0.3v0.4c0,0.7-0.2,1.4-0.4,2.1c-0.5,1.3-0.9,2.8-1.4,4.5c-0.3,1-0.7,2-1,3  c-0.5,1.4-0.9,3.1-1.4,4.7c-2.3,7.8-5.2,17.1-6.4,19.4c-0.1,0.1-0.2,0.1-0.3,0.2c-0.9,0.6-1.9,1-3,1.1c-1.5-0.1-3-0.6-4.3-1.4  c-0.1-0.2-0.1-0.3-0.2-0.5l0.1,0.1c-0.1-0.2-0.1-0.5-0.3-0.7c-0.1-0.5-0.3-0.8-0.4-1.3c-0.8-2.8-1.9-6.3-2.9-9.6  c-1-3.5-1.6-5.7-2.6-10c-0.8,3.1-1.8,6.9-2.7,9.9C21.2,25.2,21,26,20.7,27c-1,3.4-2.7,9.1-3,10c-1,0.8-2.2,1.2-3.5,1.3  c-2.1,0.2-4.3-1.5-4.3-1.5v-0.2c-0.2-0.5-0.5-1-0.7-1.5c-0.9-2.8-2.2-7.3-3.5-11.5c-0.9-3-1.9-6.1-2.7-9c-0.4-1.4-0.8-2.8-1.1-4  C1.5,8.5,0.8,6.4,0,4.3c0.3-0.7,1-1.4,2.7-1.5c1.1-0.1,2.2-0.2,3.3-0.2c0.8,0.1,1.7,2.8,1.8,3.4c1,3.6,2.3,8,3.8,13l1,3.2  c0.3,1.1,0.5,2.1,0.7,3c0.5,2.1,0.5,1.5,1,3.6c0.4-1.7,0.8-3.7,1.4-5.9c1.6-5.5,3.4-11.5,5.3-17.6c0.1-0.3,0.2-0.7,0.3-1.1  c0.4-0.3,0.9-0.5,1.4-0.5C23.2,3.8,23.7,3.7,24.3,3.7"/>
<path id="Tracé_7053" style="fill:#00517B;" d="M66.6,32.7c0.3,0.9,0.5,1.8,0.7,2.7c-0.1,1.1-2.2,2.3-4.2,2.8h0.1  c-1.7,0.3-3.4,0.5-5.1,0.5c-3.3,0-6.6-0.5-9.2-2.6c-2.4-2-3.6-5.4-3.6-9.7c0-10.3,5.5-14.2,13-14.2c6.2,0,9.4,3,9.9,7.6  c0.1,0.8,0.1,1.7,0.1,2.6c0,1.1-0.1,2.1-0.3,3.1c-1.6,0.8-3.3,1.3-5.1,1.4c-2,0.2-5.3,0.3-8.4,0.3c-1,0-1.2,0.1-2.3,0  c0.1,5.3,2.9,7,6.9,7C61.6,34.3,64.2,33.8,66.6,32.7 M57.3,16.1c-2.3,0.3-4.6,2.5-5,7.3h1.8c2.3,0,4.9-0.1,6.3-0.2  c0.3,0,0.7-0.1,1-0.2c0.2-0.5,0.3-1.1,0.3-1.6c0-0.2-0.1-0.4-0.1-0.6v-0.5c-0.3-2.8-1.5-4.2-4-4.2L57.3,16.1z"/>
<path id="Tracé_7054" style="fill:#00517B;" d="M70.9,37.1c-0.5-1-0.7-2-0.7-3.1V7.1c0-2.3-0.1-3.8-0.1-5.1c0.8-1.4,3-1.7,6.3-1.7  C76.8,1.3,77,2.2,77,4.6v9c2.1-1,4.5-1.5,6.8-1.5c6.3,0,11.1,3.2,11.1,11.2c0,7.3-3.1,11.3-6.4,13.3c-2.7,1.4-5.7,2.1-8.8,2  c-2.9,0.1-5.9-0.4-8.6-1.5L70.9,37.1z M77,34.2c1,0.3,2.1,0.5,3.2,0.5c3.4,0,7.4-2.3,7.4-10.6c0-5.7-2.3-7.7-6.1-7.7  c-1.6,0-3.1,0.4-4.5,1.2V34.2z"/>
<path id="Tracé_7055" style="fill:#00517B;" d="M100.4,11.5c0.5,1.2,0.7,2.6,0.6,3.9v27c1.5,0.1,3.6,0.2,5.5,0.2c2.3,0,5,0,8.1-0.2  c0.1,0.7,0.1,1.3,0.1,2c-0.3,1.2-1.3,2.2-2.5,2.4c-1.2,0.1-3.4,0.1-6.5,0.1c-4.3,0-8.7-0.2-11.2-0.3c-0.1-0.5-0.2-1.1-0.3-1.5  c-0.1-0.4-0.1-0.9-0.3-1.3V18.1c0-2.5-0.1-4.3-0.1-5.6c0.8-0.9,2.2-1.1,6-1.1L100.4,11.5z"/>
<path id="Tracé_7056" style="fill:#00517B;" d="M135.5,41.5c0.3,0.9,0.5,1.8,0.7,2.7c-0.1,1.1-2.2,2.3-4.2,2.8h0.1  c-1.7,0.3-3.4,0.5-5.1,0.5c-3.3,0-6.6-0.5-9.2-2.6c-2.4-2-3.6-5.4-3.6-9.7c0-10.3,5.5-14.2,13-14.2c6.2,0,9.4,3,9.9,7.6  c0.1,0.8,0.1,1.7,0.1,2.6c0,1.1-0.1,2.1-0.3,3.1c-1.6,0.8-3.3,1.3-5.1,1.4c-2,0.2-5.3,0.3-8.4,0.3c-1,0-1.2,0.1-2.3,0  c0.1,5.3,2.9,7,6.9,7C130.6,43,133.2,42.5,135.5,41.5 M126.2,24.9c-2.3,0.3-4.6,2.5-5,7.3h1.8c2.3,0,4.9-0.1,6.3-0.2  c0.3,0,0.7-0.1,1-0.2c0.2-0.5,0.3-1.1,0.3-1.6c0-0.2-0.1-0.4-0.1-0.6v-0.5c-0.3-2.8-1.5-4.2-4-4.2L126.2,24.9z"/>
<path id="Tracé_7057" style="fill:#00517B;" d="M162.6,46.5c-1.2,0.3-2.5,0.4-3.8,0.4c-1.2,0-2.4-0.2-3.5-0.4c-0.3-0.4-0.6-1-1-1.4  s-0.8-1.1-1.3-1.7c-1.3-1.9-2.5-3.6-3.7-5.4l-0.1,0.1c-1.5,2.2-3.1,4.8-5.7,8l0.1-0.1c-0.6,0.9-1.2,1-3.5,1c-1.2,0-2.4-0.1-3.6-0.2  l0.8-1.8c1.5-2,3.3-4.1,5.1-6.4c1.2-1.5,2.3-3,3.6-4.7c-1.3-1.8-3-3.9-4.6-6.1c-1.4-1.8-2.6-3.5-3.5-4.8l-0.3-0.7  c1.3-0.5,2.6-0.8,4-0.9h2.4c1,0.7,1.8,1.6,2.4,2.6h-0.1c1.3,1.5,0.5,0.6,0.6,0.7h-0.1c0.5,0.6,0.8,1.3,1.4,2  c0.9,1.3,1.3,1.9,2.1,2.9c0-0.1,0.2-0.2,0.2-0.3c0.8-1.2,1.7-2.7,2.5-3.8c0.4-0.5,0.8-1,1.2-1.5s0.8-1,1.2-1.5c0.7-0.7,0.9-1,2.7-1  c1.5,0.1,3,0.2,4.5,0.5c-0.1,0.2-0.4,0.7-0.5,0.9c-0.1,0.2-0.2,0.4-0.3,0.6c-1.6,2-3.6,4.5-5.5,6.9c-0.9,1.2-1.7,2.2-2.5,3.2  c1.8,2.3,3.6,4.8,5.5,7.3c1.2,1.6,2.5,3.3,3.6,4.8l0.3,0.7L162.6,46.5z"/>
<rect id="Rectangle_6646" x="185.7" y="15.7" transform="matrix(0.3299 -0.944 0.944 0.3299 107.4254 198.732)" style="fill:#148CB3;" width="16" height="16"/>
<rect id="Rectangle_6647" x="195.5" y="0.6" transform="matrix(0.9899 -0.142 0.142 0.9899 1.3114 28.4367)" style="fill:#5FC3E1;" width="8.9" height="8.9"/>
<rect id="Rectangle_6648" x="167.5" y="22.7" transform="matrix(0.9546 -0.2979 0.2979 0.9546 -1.8384 54.5881)" style="fill:#006186;" width="21.3" height="21.3"/>
</svg>
