<svg xmlns="http://www.w3.org/2000/svg" xmlns:xlink="http://www.w3.org/1999/xlink" width="618.23" height="114.242" viewBox="0 0 618.23 114.242">
  <defs>
    <clipPath id="clip-path">
      <rect id="Rectangle_226" data-name="Rectangle 226" width="618.23" height="114.242" fill="none"/>
    </clipPath>
  </defs>
  <g id="Groupe_207" data-name="Groupe 207" clip-path="url(#clip-path)">
    <path id="Tracé_315" data-name="Tracé 315" d="M53.7,18.291a9.4,9.4,0,0,1,1.934-.33q1-.065,2.089-.2c.72-.087,1.47-.153,2.244-.2s1.779-.066,3.018-.066a10.161,10.161,0,0,1,1.78,2.772,23.411,23.411,0,0,1,1.16,3.3q1.237,3.961,2.863,9.571t3.482,12.343Q73.5,49.445,74.662,54t2.553,9.175q.152.662.31,1.122c.1.31.205.683.309,1.122q.617,2.642,1.083,4.488t.929,3.565q.463,1.716.928,3.63t1.083,4.554q.464-1.847,1.006-3.7T83.87,74q.616-2.376,1.083-5.016a48.571,48.571,0,0,1,1.238-5.28q4.33-13.991,7.273-24.488t5.261-19.471L99.5,17.63l-.155.132a4.9,4.9,0,0,0,.232-.792,2.528,2.528,0,0,1,.7-1.056,2.607,2.607,0,0,1,1.547-.594c.619-.044,1.494-.066,2.631-.066a5.132,5.132,0,0,1,.851.066,4.956,4.956,0,0,0,.851.066c.515,0,1.107.023,1.78.066s1.262.111,1.779.2a16.782,16.782,0,0,1,5.416.792v.924a17.281,17.281,0,0,1-.155,1.915,19.575,19.575,0,0,1-.774,3.234q-.776,2.509-1.625,5.28T110.795,33.6q-.464,1.85-1.083,3.7t-1.238,3.828q-.776,2.642-1.625,5.61t-1.625,6.007q-2.169,7.261-4.333,14.851T96.636,81.919q-2.089,6.732-3.791,11.749a59.207,59.207,0,0,1-2.786,7.129,1.219,1.219,0,0,1-.31.2,1.243,1.243,0,0,0-.309.2q-1.7.925-3.172,1.65a11.981,11.981,0,0,1-3.946.99,10.207,10.207,0,0,1-3.636-.4,30.443,30.443,0,0,1-3.327-1.188A22.532,22.532,0,0,1,72.11,100.4c-.1-.264-.182-.482-.232-.66s-.131-.4-.232-.66l.155.132c.1.177.077.023-.077-.462a6.372,6.372,0,0,0-.541-1.254q-.312-1.055-.464-1.65c-.1-.4-.259-.944-.464-1.65Q68.7,88.918,66.926,82.777T63.289,70.434q-.929-3.3-1.625-6.073t-1.392-5.61q-.7-2.837-1.47-5.941t-1.7-7.062Q55.707,51.559,54,58.157T50.755,70.3a10.483,10.483,0,0,0-.619,2.046q-.312,1.386-.928,3.366-.928,3.168-2.012,7.129T45.03,90.434q-1.085,3.632-1.934,6.4T42.09,100.4a16.973,16.973,0,0,1-3.482,2.113,15.216,15.216,0,0,1-4.72,1.056,8.907,8.907,0,0,1-3.714-.264,14.714,14.714,0,0,1-3.249-1.32,14.216,14.216,0,0,1-3.25-2.113v-.4c-.208-.439-.464-.968-.774-1.584a10.676,10.676,0,0,1-.774-2.112q-1.7-5.279-3.868-12.937T13.772,67.266q-1.7-5.675-3.327-11.287T7.273,44.956Q6.5,42.317,5.88,39.808T4.642,34.924q-1.548-5.941-2.708-10.1A27.609,27.609,0,0,0,0,19.346,5.722,5.722,0,0,1,2.012,16.9,9,9,0,0,1,6.344,15.65a73.011,73.011,0,0,1,7.737-.4q.616.133,1.392,1.254a15.81,15.81,0,0,1,1.393,2.508,20.269,20.269,0,0,1,1.006,2.772q.385,1.386.541,1.914,1.7,6.732,4.023,14.851t4.951,17.492l2.321,7.921q.464,1.979.851,3.828t.851,3.7q.464,1.98.7,2.838t.464,1.584q.232.727.464,1.65t.7,2.9q.773-3.168,1.547-6.8t1.857-7.723q2.938-10.3,6.035-21.32t6.5-22.376c.1-.439.205-.879.309-1.32s.206-.879.31-1.32a6.042,6.042,0,0,1,1.083-.726,8.357,8.357,0,0,1,2.321-.594" transform="translate(0 -9.578)" fill="#00527a"/>
    <path id="Tracé_316" data-name="Tracé 316" d="M324.3,133.538a47.622,47.622,0,0,0,8.975-.858,37.665,37.665,0,0,0,8.975-2.97,16.82,16.82,0,0,1,1.083,3.7q.308,1.85.464,2.9a3.216,3.216,0,0,1-.928,2.113,11.555,11.555,0,0,1-2.321,1.98,18.016,18.016,0,0,1-3.172,1.65,21.46,21.46,0,0,1-3.637,1.122h.155q-1.7.4-5.029.858a51.333,51.333,0,0,1-7.041.462,53.049,53.049,0,0,1-11.528-1.254,23.527,23.527,0,0,1-10.29-5.214,22.791,22.791,0,0,1-6.422-9.9,43.883,43.883,0,0,1-2.089-14.257,49.966,49.966,0,0,1,2.321-16.3,28.47,28.47,0,0,1,6.422-10.825,24.547,24.547,0,0,1,9.748-6.073,38.134,38.134,0,0,1,12.3-1.914q11.141,0,16.866,5.082t6.654,13.8q.152,1.454.232,3.036t.077,3.3a34.49,34.49,0,0,1-.774,7.789,16.584,16.584,0,0,1-5.029,2.112,43.02,43.02,0,0,1-7.04,1.452q-3.561.4-9.053.594t-10.909.2c-1.238,0-2.142.023-2.708.066a20.109,20.109,0,0,1-2.708-.066q.308,9.9,4.72,13.663t11.683,3.762m-4.178-45.015q-4.179.529-7.66,4.819t-4.255,13.267h4.333q4.022,0,8.279-.066t6.577-.33q.617-.13,1.161-.2a4.259,4.259,0,0,0,1.161-.33,6.27,6.27,0,0,0,.464-1.716,15.755,15.755,0,0,0,.154-2.244,3.245,3.245,0,0,0-.077-.726,3.1,3.1,0,0,1-.077-.726v-1.32q-.621-5.278-2.786-7.854t-6.654-2.574Z" transform="translate(-183.025 -49.448)" fill="#00527a"/>
    <path id="Tracé_317" data-name="Tracé 317" d="M452.2,91.087a13.062,13.062,0,0,1-1.238-3.63,23.538,23.538,0,0,1-.309-4.026V16.765q0-4.223-.077-7.26t-.232-5.28q1.393-2.64,5.184-3.432A48.63,48.63,0,0,1,465.2,0a16.518,16.518,0,0,1,1.161,3.894,41.88,41.88,0,0,1,.387,6.667V33a40.046,40.046,0,0,1,7.2-2.64,35.147,35.147,0,0,1,9.053-1.056,34.222,34.222,0,0,1,10.367,1.518,21.4,21.4,0,0,1,8.356,4.884,22.923,22.923,0,0,1,5.571,8.647A35.679,35.679,0,0,1,509.3,57.028a53.77,53.77,0,0,1-1.238,12.079,37.765,37.765,0,0,1-3.4,9.373,30.036,30.036,0,0,1-4.952,6.864,31.7,31.7,0,0,1-5.725,4.686,32.662,32.662,0,0,1-10.522,3.96,55.921,55.921,0,0,1-10.368,1.056,68.413,68.413,0,0,1-11.76-.924,28.579,28.579,0,0,1-8.666-2.772Zm14.546-7.128a17.693,17.693,0,0,0,3.4.858,25.622,25.622,0,0,0,4.178.33,17.4,17.4,0,0,0,6.112-1.188,13.856,13.856,0,0,0,5.725-4.224,23.782,23.782,0,0,0,4.178-8.053,42.309,42.309,0,0,0,1.625-12.805q0-10.56-3.869-14.785t-10.677-4.224a20.922,20.922,0,0,0-5.416.792,19.355,19.355,0,0,0-5.261,2.244Z" transform="translate(-282.76 0)" fill="#00527a"/>
    <path id="Tracé_318" data-name="Tracé 318" d="M622.971,66.878a14.43,14.43,0,0,1,1.083,3.828,42.449,42.449,0,0,1,.31,5.809v67.061q2.63.266,6.112.33t7.041.066q4.022,0,8.9-.066t10.29-.462a27.21,27.21,0,0,1,.31,3.168v1.848a8.1,8.1,0,0,1-1.7,3.5,7.291,7.291,0,0,1-4.333,2.442q-2.169.13-6.035.2t-9.439.065q-7.739,0-14.932-.264t-11.683-.528q-.156-.922-.31-1.915t-.31-1.914a15.632,15.632,0,0,1-.232-1.65,6.1,6.1,0,0,0-.387-1.65V83.115q0-4.62-.077-8.053t-.232-5.808a7.65,7.65,0,0,1,4.487-2.244,62.523,62.523,0,0,1,9.749-.528Z" transform="translate(-381.337 -41.743)" fill="#00527a"/>
    <path id="Tracé_319" data-name="Tracé 319" d="M770.717,185.121a47.621,47.621,0,0,0,8.975-.858,37.667,37.667,0,0,0,8.975-2.97,16.858,16.858,0,0,1,1.083,3.7q.308,1.85.464,2.9a3.218,3.218,0,0,1-.928,2.113,11.55,11.55,0,0,1-2.322,1.98,17.986,17.986,0,0,1-3.172,1.65,21.452,21.452,0,0,1-3.636,1.122h.155q-1.705.4-5.029.858a51.333,51.333,0,0,1-7.041.462,53.048,53.048,0,0,1-11.528-1.254,23.527,23.527,0,0,1-10.29-5.214,22.791,22.791,0,0,1-6.422-9.9,43.883,43.883,0,0,1-2.089-14.257,49.966,49.966,0,0,1,2.321-16.3,28.47,28.47,0,0,1,6.422-10.825,24.548,24.548,0,0,1,9.748-6.073,38.134,38.134,0,0,1,12.3-1.914q11.142,0,16.866,5.082t6.654,13.8q.152,1.454.232,3.036t.077,3.3a34.49,34.49,0,0,1-.774,7.789,16.584,16.584,0,0,1-5.03,2.112,43.018,43.018,0,0,1-7.04,1.452q-3.561.4-9.053.594t-10.909.2c-1.238,0-2.142.023-2.708.066a20.109,20.109,0,0,1-2.708-.066q.308,9.9,4.72,13.663t11.683,3.762m-4.178-45.015q-4.179.529-7.66,4.819t-4.255,13.267h4.333q4.022,0,8.279-.066t6.576-.33q.617-.13,1.161-.2a4.269,4.269,0,0,0,1.161-.33,6.324,6.324,0,0,0,.464-1.716,15.819,15.819,0,0,0,.154-2.244,3.242,3.242,0,0,0-.077-.726,3.122,3.122,0,0,1-.077-.726v-1.32q-.622-5.278-2.786-7.854t-6.654-2.574Z" transform="translate(-463.32 -81.836)" fill="#00527a"/>
    <path id="Tracé_320" data-name="Tracé 320" d="M945.395,195.393a17.429,17.429,0,0,1-3.636.594q-2.4.2-5.338.33-1.55,0-3.637-.2a31.877,31.877,0,0,1-4.72-.858,15.225,15.225,0,0,1-1.16-1.716,14.027,14.027,0,0,0-1.316-1.848q-.776-.922-1.547-2.046t-1.547-2.178q-2.322-3.564-4.487-6.8t-4.333-6.667l-.155.132q-2.634,4.093-5.8,9.042T899.9,194.073l.155-.132a4.181,4.181,0,0,1-2.708,2.046,32.847,32.847,0,0,1-5.648.33q-1.858,0-4.1-.132t-4.565-.4l1.857-4.356q2.63-3.827,5.725-7.723t6.345-8.251q2.165-2.9,4.255-5.742t4.41-6.007q-2.322-3.3-5.184-7.195t-5.648-7.855q-2.477-3.3-4.565-6.336t-3.791-5.545l-.773-1.716a29.315,29.315,0,0,1,4.1-1.386,19.842,19.842,0,0,1,5.338-.858h5.726a16.463,16.463,0,0,1,3.017,2.706,35.215,35.215,0,0,1,2.708,3.63H906.4A22.578,22.578,0,0,0,907.87,141c.256.264.361.375.31.33a1.368,1.368,0,0,1-.232-.33c-.1-.175-.155-.218-.155-.132h-.155q.774,1.058,1.548,2.376a22.546,22.546,0,0,0,1.7,2.508q1.7,2.51,2.63,3.894t2.321,3.367c0-.087.077-.2.231-.33s.232-.242.232-.33q1.393-2.243,2.94-4.752t3.1-4.621q.771-1.055,1.393-1.914t1.393-1.914q.774-1.055,1.471-1.915t1.469-1.782a7.7,7.7,0,0,1,2.167-1.914,9.818,9.818,0,0,1,4.178-.594,45.2,45.2,0,0,1,4.8.33q2.938.331,5.88.858a5.053,5.053,0,0,0-.619,1.122,2.768,2.768,0,0,1-.619.99,1.928,1.928,0,0,0-.387.726,1.977,1.977,0,0,1-.387.726q-2.941,3.831-6.344,8.251t-6.654,8.779q-1.705,2.247-3.095,4.158t-2.94,3.894q3.093,4.357,6.344,8.911t6.654,9.175q2.166,3.038,4.333,6.072t4.333,5.941l.773,1.716Z" transform="translate(-554.439 -83.395)" fill="#00527a"/>
    <path id="Tracé_321" data-name="Tracé 321" d="M1048.128,24.4v-1.61a9.265,9.265,0,0,0-.065-1.052,8.737,8.737,0,0,1-.066-1.053,9.116,9.116,0,0,1,4.863-1.238q3.022-.247,6.505-.31t7.031-.062a47.994,47.994,0,0,1,12.222,1.424,23.6,23.6,0,0,1,9.133,4.52A19.7,19.7,0,0,1,1093.468,33a31.656,31.656,0,0,1,1.972,11.827,26.239,26.239,0,0,1-2.168,11.269,22.464,22.464,0,0,1-5.52,7.492,22.945,22.945,0,0,1-7.294,4.334,31.948,31.948,0,0,1-7.359,1.8q-1.316,0-2.76-.124a8.257,8.257,0,0,1-2.694-.681,4.729,4.729,0,0,1-2.037-1.733,5.848,5.848,0,0,1-.789-3.282q0-.618.986-1.177a4.332,4.332,0,0,1,2.169-.557,11.96,11.96,0,0,0,4.337-.867,9.946,9.946,0,0,0,4.008-2.972,17.261,17.261,0,0,0,2.957-5.511,26.131,26.131,0,0,0,1.182-8.483,21.669,21.669,0,0,0-1.051-7.182,12.7,12.7,0,0,0-2.826-4.768,10.538,10.538,0,0,0-4.139-2.6,15.845,15.845,0,0,0-5.126-.8h-2.826a19.955,19.955,0,0,0-2.3.124V82.6l.131,13.622a7.9,7.9,0,0,1-1.577,5.077,5.149,5.149,0,0,1-3.154,1.3q-1.971.186-5.914.186h-3.548q.13-5.324.2-11.765t.065-13.87Z" transform="translate(-658.015 -11.975)" fill="#5ec2df"/>
    <path id="Tracé_322" data-name="Tracé 322" d="M1200.731,93.807a15.306,15.306,0,0,0-4.863.743,10.93,10.93,0,0,0-4.075,2.476v39.009a16.243,16.243,0,0,1-.2,2.663,5.677,5.677,0,0,1-1.118,2.415,5.9,5.9,0,0,1-1.642.929,9.113,9.113,0,0,1-2.234.433q-1.38.122-3.483.186t-5.256.062q.129-4.952.2-11.145t.065-13.375l.132-20.681a22.913,22.913,0,0,0-.526-5.2,39.527,39.527,0,0,0-1.183-4.087,10.906,10.906,0,0,1,2.1-1.486,28,28,0,0,1,3.548-1.61,3.2,3.2,0,0,1,1.052-.248h.788a6.532,6.532,0,0,1,3.089.557,4.212,4.212,0,0,1,1.642,1.919,23.286,23.286,0,0,1,3.877-2.105q2.035-.865,3.877-1.486a19.714,19.714,0,0,1,3.745-.929,13.714,13.714,0,0,1,3.877-.062q5.914.621,6.571,3.467a19.632,19.632,0,0,1-.46,3.653,9.835,9.835,0,0,1-1.905,4.148,3.122,3.122,0,0,1-.92.247h-1.182q-1.053,0-2.037-.061t-1.774-.186a3.205,3.205,0,0,0-1.051-.247Z" transform="translate(-738.731 -51.911)" fill="#5ec2df"/>
    <path id="Tracé_323" data-name="Tracé 323" d="M1312.109,111.979a43.092,43.092,0,0,1-1.971,13.684,27.762,27.762,0,0,1-5.52,9.845,22.715,22.715,0,0,1-8.345,5.944,27.132,27.132,0,0,1-10.447,1.982q-12.617,0-19.45-7.245t-6.834-23.468a43.541,43.541,0,0,1,1.971-13.808,26.519,26.519,0,0,1,5.519-9.721,22.013,22.013,0,0,1,8.411-5.7,29.974,29.974,0,0,1,10.777-1.858q13.01,0,19.45,7.678t6.44,22.663m-37.981.247a49.682,49.682,0,0,0,.92,10.4,22.409,22.409,0,0,0,2.5,6.811,9.606,9.606,0,0,0,3.746,3.715,10.334,10.334,0,0,0,4.8,1.115,9.4,9.4,0,0,0,4.468-1.115,9.777,9.777,0,0,0,3.68-3.715,22.448,22.448,0,0,0,2.5-6.749,48.9,48.9,0,0,0,.92-10.34q0-11.639-3.154-16.471a9.846,9.846,0,0,0-8.674-4.83,9.014,9.014,0,0,0-4.468,1.177,10.539,10.539,0,0,0-3.681,3.653,21.818,21.818,0,0,0-2.562,6.563,42.229,42.229,0,0,0-.986,9.783" transform="translate(-790.84 -51.259)" fill="#5ec2df"/>
    <rect id="Rectangle_223" data-name="Rectangle 223" width="39.785" height="39.785" transform="translate(566.6 71.619) rotate(-69.924)" fill="#068cb0"/>
    <rect id="Rectangle_224" data-name="Rectangle 224" width="20.262" height="21.333" transform="translate(595.425 3.482) rotate(-7.288)" fill="#62c3db"/>
    <rect id="Rectangle_225" data-name="Rectangle 225" width="50.316" height="50.316" transform="matrix(0.958, -0.288, 0.288, 0.958, 522.584, 64.209)" fill="#036285"/>
  </g>
</svg>
