<?xml version="1.0" encoding="utf-8"?>
<!-- Generator: Adobe Illustrator 25.4.1, SVG Export Plug-In . SVG Version: 6.00 Build 0)  -->
<svg version="1.1" id="Groupe_6" xmlns="http://www.w3.org/2000/svg" xmlns:xlink="http://www.w3.org/1999/xlink" x="0px" y="0px"
	 width="247.6px" height="45.8px" viewBox="0 0 247.6 45.8" style="enable-background:new 0 0 247.6 45.8;" xml:space="preserve">
<style type="text/css">
	.st0{fill:#FFFFFF;}
</style>
<path class="st0" d="M44.4,9.6c0.2-0.8,0.5-1.6,0.7-2.3c0.2-0.7,0.4-1.4,0.7-2.1c0.1-0.4,0.2-0.9,0.3-1.3c0-0.3,0.1-0.5,0.1-0.8V2.8
	c-0.7-0.2-1.4-0.3-2.2-0.3c-0.2,0-0.4-0.1-0.7-0.1c-0.3,0-0.5,0-0.7,0c-0.1,0-0.2,0-0.3,0c-0.1,0-0.2,0-0.3,0c-0.5,0-0.8,0-1.1,0
	c-0.2,0-0.4,0.1-0.6,0.2C40,2.7,39.9,2.8,39.9,3c0,0.1-0.1,0.2-0.1,0.3l0.1-0.1l-0.3,0.8c-0.6,2.4-1.3,5-2.1,7.8
	c-0.8,2.8-1.8,6.1-2.9,9.8c-0.2,0.7-0.4,1.4-0.5,2.1c-0.1,0.7-0.3,1.4-0.4,2c-0.1,0.6-0.3,1.1-0.4,1.6s-0.3,1-0.4,1.5
	c-0.2-0.7-0.3-1.3-0.4-1.8c-0.1-0.5-0.2-1-0.4-1.5c-0.1-0.5-0.2-0.9-0.4-1.4c-0.1-0.5-0.3-1.1-0.4-1.8c0-0.2-0.1-0.3-0.1-0.4
	s-0.1-0.3-0.1-0.4c-0.4-1.2-0.7-2.5-1-3.7c-0.3-1.2-0.6-2.4-1-3.4c-0.5-1.8-1-3.4-1.4-4.9s-0.8-2.8-1.1-3.8
	c-0.1-0.5-0.3-0.9-0.5-1.3c-0.2-0.4-0.4-0.8-0.7-1.1c-0.5,0-0.9,0-1.2,0c-0.3,0-0.6,0-0.9,0.1c-0.3,0-0.6,0.1-0.8,0.1
	c-0.3,0-0.5,0.1-0.8,0.1l0,0c-0.3,0-0.6,0.1-0.9,0.2c-0.2,0.1-0.3,0.2-0.4,0.3c0,0.2-0.1,0.4-0.1,0.5c0,0.2-0.1,0.4-0.1,0.5
	c-0.9,3-1.8,6-2.6,9c-0.8,2.9-1.6,5.8-2.4,8.5c-0.3,1.1-0.5,2.1-0.7,3.1c-0.2,1-0.4,1.9-0.6,2.7c-0.1-0.5-0.2-0.9-0.3-1.2
	s-0.1-0.5-0.2-0.7c-0.1-0.2-0.1-0.4-0.2-0.6c-0.1-0.2-0.2-0.6-0.3-1.1c-0.1-0.5-0.2-1-0.3-1.5c-0.1-0.5-0.2-1-0.3-1.5L11,18.6
	c-0.7-2.5-1.4-4.8-2-7S7.8,7.5,7.4,5.7c0-0.1-0.1-0.4-0.2-0.8C7.1,4.5,6.9,4.1,6.8,3.8c-0.2-0.3-0.3-0.7-0.6-1
	C6,2.5,5.8,2.3,5.6,2.3c-1,0-2.1,0.1-3.1,0.2c-0.6,0-1.2,0.2-1.7,0.5C0.5,3.2,0.2,3.5,0,3.9c0.3,0.7,0.6,1.4,0.8,2.2
	c0.3,1.1,0.7,2.5,1.1,4c0.2,0.6,0.3,1.3,0.5,2s0.4,1.4,0.6,2.1c0.4,1.4,0.8,2.9,1.3,4.4s0.9,3,1.3,4.5c0.6,2.1,1.2,4.2,1.8,6.2
	c0.6,2,1.1,3.8,1.5,5.2c0.1,0.3,0.2,0.6,0.3,0.8c0.1,0.2,0.2,0.5,0.3,0.6v0.2c0.4,0.3,0.8,0.6,1.3,0.8c0.4,0.2,0.8,0.4,1.3,0.5
	c0.5,0.1,1,0.2,1.5,0.1c0.6,0,1.3-0.2,1.9-0.4c0.5-0.2,1-0.5,1.4-0.8c0-0.2,0.2-0.7,0.4-1.4c0.2-0.7,0.5-1.6,0.8-2.6
	c0.3-1,0.6-2,0.9-3c0.3-1.1,0.6-2,0.8-2.9c0.2-0.5,0.3-1,0.4-1.3c0.1-0.3,0.1-0.6,0.2-0.8c0.4-1.5,0.8-3.1,1.3-4.9
	c0.5-1.8,0.9-3.4,1.2-5c0.2,1.1,0.5,2,0.7,2.8s0.4,1.6,0.6,2.4c0.2,0.8,0.4,1.5,0.6,2.2c0.2,0.7,0.4,1.6,0.7,2.4
	c0.5,1.7,1,3.3,1.5,4.9s0.9,3.2,1.3,4.6c0.1,0.3,0.1,0.5,0.2,0.7c0,0.2,0.1,0.4,0.2,0.7c0.1,0.2,0.2,0.3,0.2,0.5
	c0.1,0.2,0.1,0.3,0,0.2l-0.1-0.1c0,0.1,0.1,0.2,0.1,0.3c0,0.1,0.1,0.2,0.1,0.3c0.4,0.3,0.8,0.5,1.3,0.7c0.4,0.2,0.9,0.3,1.3,0.5
	c0.5,0.1,1,0.2,1.5,0.2c0.5,0,1.1-0.2,1.6-0.4c0.4-0.2,0.8-0.4,1.3-0.7c0,0,0.1-0.1,0.1-0.1c0,0,0.1,0,0.1-0.1
	c0.4-0.9,0.8-1.9,1.1-2.9c0.5-1.3,1-2.9,1.5-4.7c0.6-1.8,1.1-3.7,1.7-5.7c0.6-2,1.2-4,1.7-5.9c0.2-0.8,0.4-1.6,0.7-2.4
	s0.4-1.5,0.7-2.2c0.2-0.5,0.3-1,0.5-1.5S44.3,10.1,44.4,9.6z"/>
<path class="st0" d="M65.2,19.3c-0.1-2.1-1.1-4.1-2.7-5.5c-1.5-1.4-3.8-2-6.8-2c-1.7,0-3.3,0.2-4.9,0.8c-1.5,0.5-2.8,1.3-3.9,2.4
	c-1.2,1.2-2,2.7-2.6,4.3c-0.7,2.1-1,4.3-0.9,6.5c0,1.9,0.2,3.9,0.8,5.7c0.5,1.5,1.4,2.9,2.6,4c1.2,1,2.6,1.7,4.1,2.1
	c1.5,0.3,3.1,0.5,4.6,0.5c0.9,0,1.9-0.1,2.8-0.2c0.9-0.1,1.6-0.2,2-0.3h-0.1c0.5-0.1,1-0.3,1.5-0.4c0.4-0.2,0.9-0.4,1.3-0.7
	c0.3-0.2,0.7-0.5,0.9-0.8c0.2-0.2,0.4-0.5,0.4-0.8c0-0.3-0.1-0.7-0.2-1.2c-0.1-0.5-0.2-1-0.4-1.5c-1.1,0.5-2.4,0.9-3.6,1.2
	c-1.2,0.2-2.4,0.3-3.6,0.3h0c-1.7,0.1-3.4-0.5-4.7-1.5c-1.2-1-1.8-2.8-1.9-5.5c0.4,0,0.7,0,1.1,0c0.2,0,0.6,0,1.1,0
	c1.4,0,2.9,0,4.4-0.1c1.5-0.1,2.7-0.1,3.6-0.2c1-0.1,1.9-0.3,2.8-0.6c0.7-0.2,1.4-0.5,2-0.8c0.2-1,0.3-2.1,0.3-3.1
	c0-0.5,0-0.9,0-1.3C65.3,20.1,65.2,19.7,65.2,19.3z M58.9,21.8c0,0.2-0.1,0.5-0.2,0.7c-0.1,0.1-0.3,0.1-0.5,0.1
	c-0.1,0-0.3,0-0.5,0.1c-0.6,0.1-1.5,0.1-2.6,0.1s-2.2,0-3.3,0h-1.7c0-1.9,0.6-3.7,1.7-5.3c0.7-1,1.8-1.7,3.1-1.9h0.3
	c1-0.1,2,0.3,2.7,1c0.7,0.9,1.1,2,1.1,3.1v0.5c0,0.1,0,0.2,0,0.3c0,0.1,0,0.2,0,0.3C59,21.2,59,21.5,58.9,21.8z"/>
<path class="st0" d="M106.2,40.9c-1.3,0-2.5,0-3.6,0c-1,0-1.9,0-2.8,0c-0.9,0-1.7-0.1-2.4-0.1V13.9c0-0.8,0-1.6-0.1-2.3
	c-0.1-0.5-0.2-1-0.4-1.5l-0.6-0.2c-1.3,0-2.6,0-3.9,0.2c-0.7,0.1-1.3,0.4-1.8,0.9c0,0.6,0.1,1.4,0.1,2.3c0,0.9,0,2,0,3.2V21
	c-0.1-1.1-0.3-2.2-0.7-3.2c-0.5-1.3-1.2-2.5-2.2-3.5c-1-0.9-2.1-1.6-3.3-2c-1.3-0.4-2.7-0.6-4.2-0.6c-1.2,0-2.4,0.1-3.6,0.4
	c-1,0.3-2,0.6-2.9,1.1v-9c0-0.9,0-1.8-0.2-2.7C73.4,1,73.3,0.5,73.1,0c-1.3,0-2.6,0.1-3.9,0.3c-0.9,0.1-1.6,0.6-2.1,1.4
	c0,0.6,0.1,1.3,0.1,2.1c0,0.8,0,1.8,0,2.9v26.7c0,0.5,0,1.1,0.1,1.6c0.1,0.5,0.3,1,0.5,1.5l0.2,0.1c1.1,0.6,2.3,0.9,3.5,1.1
	c1.6,0.3,3.1,0.4,4.7,0.4c1.4,0,2.8-0.2,4.2-0.4c1.5-0.3,2.9-0.8,4.2-1.6c0.8-0.5,1.6-1.2,2.3-1.9c0.8-0.8,1.5-1.7,2-2.8
	c0.6-1.2,1.1-2.4,1.4-3.8c0.2-0.9,0.3-1.8,0.4-2.7v17.1c0.1,0.2,0.1,0.4,0.2,0.7c0,0.2,0.1,0.4,0.1,0.7c0,0.2,0.1,0.5,0.1,0.8
	c0,0.3,0.1,0.5,0.1,0.8c1.2,0.1,2.8,0.1,4.7,0.2s3.9,0.1,6,0.1c1.5,0,2.7,0,3.8,0c1,0,1.8,0,2.4-0.1c0.7-0.1,1.3-0.5,1.7-1
	c0.3-0.4,0.6-0.9,0.7-1.4V42c0-0.4-0.1-0.8-0.1-1.3C108.8,40.8,107.5,40.9,106.2,40.9z M83.1,28.7c-0.3,1.2-0.9,2.3-1.7,3.2
	c-0.6,0.8-1.4,1.3-2.3,1.7c-0.8,0.3-1.6,0.5-2.4,0.5c-0.6,0-1.1,0-1.7-0.1c-0.5-0.1-0.9-0.2-1.4-0.3l0-16.4c0.7-0.4,1.4-0.7,2.1-0.9
	c0.7-0.2,1.4-0.3,2.2-0.3c1.6-0.1,3.2,0.5,4.3,1.7c1,1.1,1.5,3.1,1.5,5.9C83.8,25.3,83.6,27,83.1,28.7z"/>
<path class="st0" d="M118.7,34.4c1.4,0,2.9,0,4.4-0.1s2.7-0.1,3.6-0.2c1-0.1,1.9-0.3,2.8-0.6c0.7-0.2,1.4-0.5,2-0.8
	c0.2-1,0.3-2.1,0.3-3.1c0-0.5,0-0.9,0-1.3c0-0.4-0.1-0.8-0.1-1.2c-0.1-2.1-1.1-4.1-2.7-5.5c-1.5-1.4-3.8-2-6.8-2
	c-1.7,0-3.3,0.2-4.9,0.8c-1.5,0.5-2.8,1.3-3.9,2.4c-1.2,1.2-2,2.7-2.6,4.3c-0.7,2.1-1,4.3-0.9,6.5c0,1.9,0.2,3.9,0.8,5.7
	c0.5,1.5,1.4,2.9,2.6,4c1.2,1,2.6,1.7,4.1,2.1c1.5,0.3,3.1,0.5,4.6,0.5c0.9,0,1.9-0.1,2.8-0.2c0.9-0.1,1.6-0.2,2-0.3h-0.1
	c0.5-0.1,1-0.3,1.5-0.4c0.4-0.2,0.9-0.4,1.3-0.7c0.3-0.2,0.7-0.5,0.9-0.8c0.2-0.2,0.4-0.5,0.4-0.8c0-0.3-0.1-0.7-0.2-1.2
	c-0.1-0.5-0.2-1-0.4-1.5c-1.1,0.5-2.4,0.9-3.6,1.2c-1.2,0.2-2.4,0.3-3.6,0.3l0,0c-1.7,0.1-3.4-0.5-4.7-1.5c-1.2-1-1.8-2.8-1.9-5.5
	c0.4,0,0.7,0,1.1,0C117.9,34.4,118.2,34.4,118.7,34.4z M118.4,25.3c0.7-1,1.8-1.7,3.1-1.9l0.3,0c1-0.1,2,0.3,2.7,1
	c0.7,0.9,1.1,2,1.1,3.1V28c0,0.1,0,0.2,0,0.3c0,0.1,0,0.2,0,0.3c0,0.3,0,0.6-0.1,0.9c0,0.2-0.1,0.5-0.2,0.7
	c-0.1,0.1-0.3,0.1-0.5,0.1c-0.1,0-0.3,0-0.5,0.1c-0.6,0.1-1.5,0.1-2.6,0.1c-1.1,0-2.2,0-3.3,0h-1.7
	C116.7,28.7,117.3,26.8,118.4,25.3z"/>
<path class="st0" d="M141.7,23.2c0,0-0.1-0.1-0.1-0.1c0-0.1-0.1-0.1-0.1-0.1h0c0,0,0,0,0,0.1C141.6,23.1,141.6,23.2,141.7,23.2z"/>
<path class="st0" d="M172.1,5.2c-1.1-0.9-2.3-1.5-3.7-1.8c-1.6-0.4-3.2-0.6-4.9-0.6c-0.9,0-1.9,0-2.8,0c-0.9,0-1.8,0.1-2.6,0.1
	c-0.7,0-1.4,0.2-1.9,0.5c0,0.1,0,0.3,0,0.4c0,0.1,0,0.3,0,0.4V5l0.1,15.3c-0.7-0.1-1.5-0.2-2.2-0.3c-0.6-0.1-1.3-0.1-1.9-0.1
	c-0.6,0-1.1,0-1.7,0.2c-0.3,0.2-0.6,0.5-0.9,0.8c-0.2,0.2-0.4,0.5-0.6,0.7c-0.2,0.2-0.4,0.5-0.6,0.8c-0.2,0.3-0.4,0.5-0.6,0.8
	c-0.2,0.2-0.4,0.5-0.6,0.8c-0.4,0.6-0.8,1.2-1.2,1.9c-0.4,0.7-0.8,1.3-1.2,1.9c0,0,0,0.1-0.1,0.1c-0.1,0.1-0.1,0.1-0.1,0.1
	c-0.4-0.5-0.7-1-0.9-1.3s-0.6-0.9-1.1-1.6c-0.2-0.3-0.5-0.7-0.7-1c-0.2-0.4-0.4-0.7-0.6-1h0.1c-0.2-0.2-0.4-0.4-0.5-0.7h0.1
	c-0.3-0.5-0.7-1-1.1-1.5c-0.4-0.4-0.8-0.8-1.2-1.1h-2.3c-0.7,0-1.4,0.1-2.1,0.3c-0.6,0.1-1.1,0.3-1.6,0.6l0.3,0.7
	c0.5,0.7,1,1.4,1.5,2.2c0.6,0.8,1.2,1.7,1.8,2.5c0.7,1.1,1.5,2.1,2.3,3.1c0.8,1,1.5,2,2.1,2.9c-0.6,0.8-1.2,1.6-1.8,2.4
	c-0.6,0.8-1.1,1.5-1.7,2.3c-0.9,1.2-1.7,2.3-2.5,3.3c-0.8,1-1.6,2.1-2.3,3.1l-0.7,1.7c0.6,0.1,1.2,0.1,1.8,0.2s1.1,0.1,1.6,0.1
	c0.8,0,1.5,0,2.3-0.1c0.5-0.1,0.9-0.4,1.1-0.8l-0.1,0.1c1.2-1.6,2.3-3,3.1-4.4c0.8-1.3,1.6-2.5,2.3-3.6l0.1-0.1
	c0.6,0.9,1.2,1.8,1.7,2.7c0.6,0.9,1.2,1.8,1.8,2.7c0.2,0.3,0.4,0.6,0.6,0.9s0.4,0.6,0.6,0.8c0.2,0.2,0.4,0.5,0.5,0.7
	c0.1,0.2,0.3,0.5,0.5,0.7c0.6,0.2,1.3,0.3,1.9,0.3c0.6,0.1,1,0.1,1.5,0.1c0.8,0,1.5-0.1,2.1-0.1c0.5,0,1-0.1,1.5-0.2l0.4-0.3
	l-0.3-0.7c-0.6-0.8-1.2-1.6-1.7-2.4l-1.7-2.4c-0.9-1.2-1.8-2.5-2.7-3.7s-1.7-2.4-2.5-3.6c0.4-0.5,0.8-1,1.2-1.6
	c0.4-0.5,0.8-1.1,1.2-1.7c0.9-1.2,1.8-2.3,2.7-3.5c0.9-1.2,1.8-2.3,2.5-3.3c0.1-0.1,0.1-0.2,0.2-0.3c0-0.1,0.1-0.2,0.2-0.3
	c0.1-0.1,0.2-0.3,0.2-0.4c0-0.1,0.1-0.1,0.1-0.2l0,5.5c0,2,0,3.8,0,5.6c0,1.7,0,3.3-0.1,4.7h1.4c1.1,0,1.8,0,2.4-0.1
	c0.5,0,0.9-0.2,1.3-0.5c0.4-0.6,0.7-1.3,0.6-2l-0.1-5.5V6.9c0.3,0,0.6-0.1,0.9-0.1h1.1c0.7,0,1.4,0.1,2.1,0.3c0.6,0.2,1.2,0.6,1.7,1
	c0.5,0.5,0.9,1.2,1.1,1.9c0.3,0.9,0.4,1.9,0.4,2.9c0,1.2-0.1,2.3-0.5,3.4c-0.3,0.8-0.7,1.5-1.2,2.2c-0.4,0.5-1,0.9-1.6,1.2
	c-0.6,0.2-1.1,0.3-1.7,0.3c-0.3,0-0.6,0.1-0.9,0.2c-0.3,0.1-0.4,0.3-0.4,0.5c0,0.5,0.1,0.9,0.3,1.3c0.2,0.3,0.5,0.5,0.8,0.7
	c0.3,0.2,0.7,0.2,1.1,0.3c0.4,0,0.8,0,1.1,0c1-0.1,2-0.4,2.9-0.7c1.1-0.4,2.1-1,2.9-1.7c0.9-0.8,1.7-1.9,2.2-3
	c0.6-1.4,0.9-3,0.9-4.5c0-1.6-0.2-3.2-0.8-4.7C173.9,7.2,173.2,6.1,172.1,5.2z"/>
<path class="st0" d="M188.9,15.2c0.1-0.5,0.2-1,0.2-1.5c-0.2-0.8-1.1-1.2-2.6-1.4c-0.5-0.1-1-0.1-1.6,0c-0.5,0.1-1,0.2-1.5,0.4
	c-0.5,0.2-1,0.4-1.6,0.6c-0.5,0.2-1.1,0.5-1.6,0.8c-0.1-0.3-0.4-0.6-0.7-0.8c-0.4-0.2-0.8-0.3-1.2-0.2H178c-0.1,0-0.3,0-0.4,0.1
	c-0.5,0.2-1,0.4-1.4,0.6c-0.3,0.2-0.6,0.4-0.8,0.6c0.2,0.5,0.3,1.1,0.5,1.6c0.1,0.7,0.2,1.4,0.2,2.1l-0.1,8.3c0,1.9,0,3.7,0,5.4
	c0,1.7,0,3.1-0.1,4.5c0.8,0,1.5,0,2.1,0s1,0,1.4-0.1c0.3,0,0.6-0.1,0.9-0.2c0.2-0.1,0.5-0.2,0.7-0.4c0.2-0.3,0.4-0.6,0.4-1
	c0.1-0.4,0.1-0.7,0.1-1.1V18.1c0.5-0.4,1-0.8,1.6-1c0.6-0.2,1.3-0.3,1.9-0.3l0.3,0c0.1,0,0.3,0,0.4,0.1c0.2,0,0.4,0.1,0.7,0.1
	c0.3,0,0.5,0,0.8,0h0.5c0.1,0,0.3,0,0.4-0.1C188.5,16.4,188.7,15.8,188.9,15.2z"/>
<path class="st0" d="M198.4,12.2c-1.5,0-2.9,0.2-4.3,0.7c-1.3,0.5-2.4,1.3-3.4,2.3c-1,1.1-1.8,2.5-2.2,3.9c-0.6,1.8-0.8,3.7-0.8,5.5
	c0,4.3,0.9,7.5,2.7,9.4c1.8,1.9,4.4,2.9,7.8,2.9c1.4,0,2.9-0.3,4.2-0.8c1.3-0.5,2.4-1.3,3.3-2.4c1-1.1,1.8-2.5,2.2-3.9
	c0.6-1.8,0.8-3.6,0.8-5.5l0,0c0-4-0.9-7-2.6-9.1C204.5,13.2,201.9,12.2,198.4,12.2z M202.6,28.6c-0.2,0.9-0.5,1.9-1,2.7
	c-0.3,0.6-0.9,1.1-1.5,1.5c-0.6,0.3-1.2,0.4-1.8,0.4c-0.7,0-1.3-0.1-1.9-0.4c-0.6-0.3-1.1-0.9-1.5-1.5c-0.5-0.8-0.8-1.8-1-2.7
	c-0.3-1.4-0.4-2.8-0.4-4.2l0,0c0-1.3,0.1-2.6,0.4-3.9c0.2-0.9,0.5-1.8,1-2.6c0.4-0.6,0.9-1.1,1.5-1.5c0.5-0.3,1.2-0.5,1.8-0.5
	c1.4,0,2.7,0.7,3.5,1.9c0.8,1.3,1.3,3.5,1.3,6.6C203,25.9,202.9,27.3,202.6,28.6z"/>
<polygon class="st0" points="229.3,22.2 228.6,19.9 209.3,25.7 215.1,45 234.4,39.2 231.8,30.5 241.9,34.2 247.4,19.2 232.4,13.7 
	"/>
<rect x="239" y="0.8" transform="matrix(0.9919 -0.1268 0.1268 0.9919 1.314 30.8709)" class="st0" width="8.1" height="8.5"/>
</svg>
