<?xml version="1.0" encoding="utf-8"?>
<!-- Generator: Adobe Illustrator 25.4.1, SVG Export Plug-In . SVG Version: 6.00 Build 0)  -->
<svg version="1.1" id="Calque_1" xmlns="http://www.w3.org/2000/svg" xmlns:xlink="http://www.w3.org/1999/xlink" x="0px" y="0px"
	 width="101.7px" height="241.8px" viewBox="0 0 101.7 241.8" style="enable-background:new 0 0 101.7 241.8;" xml:space="preserve"
	>
<style type="text/css">
	.st0{fill:none;stroke:#000000;stroke-miterlimit:10;}
	.st1{fill:#FFFFFF;}
	.st2{fill:#006186;}
	.st3{fill:none;}
	.st4{clip-path:url(#SVGID_00000080921260779125520010000001631900319258298258_);}
	.st5{fill:#000E3F;}
	.st6{fill:#FEC59E;}
	.st7{fill:#E2692D;}
</style>
<g>
	<path id="Tracé_102" class="st0" d="M18.6,193.2c6.5,11.3,14.9,23.4,25.1,32.9"/>
	<path id="Tracé_103" class="st0" d="M23.3,154.6c-2.7,12.9-4.2,26-4.6,39.2"/>
	<path id="Tracé_104" class="st1" d="M41.4,225.4c0,0-5.1,4.6-2.5,15.4c0,0,4.1,1.6,4.7-0.8l1.3-13.3
		C45,226.8,44.4,225.9,41.4,225.4"/>
	<path id="Tracé_105" class="st0" d="M41.4,225.4c0,0-5.1,4.6-2.5,15.4c0,0,4.1,1.6,4.7-0.8l1.3-13.3
		C45,226.8,44.4,225.9,41.4,225.4z"/>
	<path id="Tracé_106" class="st0" d="M35.4,155.7c0,0-10.2,44.6-0.4,80.4"/>
	<path id="Tracé_107" class="st1" d="M37.2,237.3c0,0-4.6-5.1-15.4-2.5c0,0-1.6,4.1,0.8,4.7l13.3,1.2
		C35.8,240.8,36.7,240.3,37.2,237.3"/>
	<path id="Tracé_108" class="st0" d="M37.2,237.3c0,0-4.6-5.1-15.4-2.5c0,0-1.6,4.1,0.8,4.7l13.3,1.2
		C35.8,240.8,36.7,240.3,37.2,237.3z"/>
	<path id="Tracé_109" class="st2" d="M49.4,96.4c0,0-3.6-7.4-11.2-2.3l-18.4,56.7c-0.4,1,0,2.2,1,2.6c0.1,0.1,0.2,0.1,0.4,0.1
		c0,0,10.9,4.7,17.3,3.2c0,0,2.1-0.4,2-3.4c0,0,4.7-39.2,9.3-54.7C49.8,97.9,49.7,97.2,49.4,96.4"/>
	<path id="Tracé_110" class="st0" d="M49.4,96.4c0,0-3.6-7.4-11.2-2.3l-18.4,56.7c-0.4,1,0,2.2,1,2.6c0.1,0.1,0.2,0.1,0.4,0.1
		c0,0,10.9,4.7,17.3,3.2c0,0,2.1-0.4,2-3.4c0,0,4.7-39.2,9.3-54.7C49.8,97.9,49.7,97.2,49.4,96.4z"/>
	<line id="Ligne_87" class="st3" x1="49.7" y1="98.8" x2="68.8" y2="131.4"/>
	<line id="Ligne_88" class="st0" x1="49.7" y1="98.8" x2="68.8" y2="131.4"/>
	<line id="Ligne_89" class="st3" x1="36.3" y1="135.3" x2="69.5" y2="131.7"/>
	<line id="Ligne_90" class="st0" x1="36.3" y1="135.3" x2="69.5" y2="131.7"/>
	<line id="Ligne_91" class="st3" x1="37.9" y1="94.7" x2="13.6" y2="123.8"/>
	<line id="Ligne_92" class="st0" x1="37.9" y1="94.7" x2="13.6" y2="123.8"/>
	<line id="Ligne_93" class="st3" x1="44.2" y1="136.3" x2="13.3" y2="123.4"/>
	<line id="Ligne_94" class="st0" x1="44.2" y1="136.3" x2="13.3" y2="123.4"/>
	<path id="Tracé_111" d="M44.8,137.5c0.6-0.1,0.9-0.7,0.7-1.3s-0.7-0.9-1.3-0.7c-0.6,0.1-0.9,0.7-0.7,1.3c0,0,0,0,0,0
		C43.7,137.3,44.2,137.6,44.8,137.5"/>
	<path id="Tracé_112" d="M52.6,140.4c-0.8,1.7-2.7,2.4-4.4,1.6c0,0,0,0,0,0l-2.6-1.2c-1.7-0.8-2.4-2.7-1.6-4.4
		c0.8-1.7,2.7-2.4,4.4-1.6l0,0l2.6,1.2C52.6,136.8,53.4,138.8,52.6,140.4C52.6,140.4,52.6,140.4,52.6,140.4"/>
	<path id="Tracé_113" class="st0" d="M48.9,138.5c2.9-0.2,5.7,0.7,8,2.5"/>
	<path id="Tracé_114" class="st0" d="M32,144.8c1-2.8,3-7.6,3-7.6c-3,2.5-4.9,6-5.5,9.8"/>
	<path id="Tracé_115" class="st0" d="M35.6,136.3c0,0-6,1.5-7.5,9.8"/>
	<path id="Tracé_116" class="st0" d="M35.6,135.4c0,0-6.2,0.6-8.9,8.6"/>
	<path id="Tracé_117" d="M35,134.6c0.5-0.3,1.1-0.3,1.5,0.2c0.3,0.5,0.3,1.1-0.2,1.5c-0.5,0.3-1.1,0.3-1.5-0.2c0,0,0,0,0,0
		C34.4,135.6,34.5,134.9,35,134.6"/>
	<path id="Tracé_118" class="st0" d="M35,134.6c0.5-0.3,1.1-0.3,1.5,0.2c0.3,0.5,0.3,1.1-0.2,1.5c-0.5,0.3-1.1,0.3-1.5-0.2
		c0,0,0,0,0,0C34.4,135.6,34.5,134.9,35,134.6z"/>
	<g id="Groupe_52">
		<g>
			<defs>
				<rect id="SVGID_1_" y="22.3" width="100.7" height="75.5"/>
			</defs>
			<clipPath id="SVGID_00000034048246868781066680000002975252414685534375_">
				<use xlink:href="#SVGID_1_"  style="overflow:visible;"/>
			</clipPath>
			<g id="Groupe_51" style="clip-path:url(#SVGID_00000034048246868781066680000002975252414685534375_);">
				<path id="Tracé_119" class="st5" d="M11,22.3L0,58.7l31.3,26.7l59.5,12.4l9.9-54.5L11,22.3z"/>
			</g>
		</g>
	</g>
	<path id="Tracé_120" class="st6" d="M12,21.8L1,58.2l31.3,26.7l59.5,12.4l9.9-54.5L12,21.8z"/>
	<path id="Tracé_121" class="st7" d="M22.6,47.5c0.6-1.7,1.1-3.3,1.6-4.9c5.6-17.2,8.8-30.8,7.3-31.3c-1.4-0.5-6.5,10.7-12,26.1"/>
	<path id="Tracé_122" class="st0" d="M22.6,47.5c0.6-1.7,1.1-3.3,1.6-4.9c5.6-17.2,8.8-30.8,7.3-31.3c-1.4-0.5-6.5,10.7-12,26.1"/>
	<path id="Tracé_123" class="st7" d="M15.6,52.3c-0.1,0.4-1.2-0.1-1.4,0.3c-5,15.7-7.9,28.6-6.5,29.1C9,82.1,13.2,73.2,18,60.3"/>
	<path id="Tracé_124" class="st0" d="M15.6,52.3c-0.1,0.4-1.2-0.1-1.4,0.3c-5,15.7-7.9,28.6-6.5,29.1C9,82.1,13.2,73.2,18,60.3"/>
	<path id="Tracé_125" class="st7" d="M29.2,14.7c0.3,7.5,8.5,13.3,18.5,13S65.5,21,65.3,13.5s-8.5-13.3-18.5-13S29,7.2,29.2,14.7"
		/>
	<path id="Tracé_126" class="st0" d="M29.2,14.7c0.3,7.5,8.5,13.3,18.5,13S65.5,21,65.3,13.5s-8.5-13.3-18.5-13S29,7.2,29.2,14.7z"
		/>
	<path id="Tracé_127" class="st0" d="M15.6,51.4C17.9,68,31.4,82.9,49.4,87.1c19.9,4.7,34.5-4.4,39.2-24.3
		C93.4,43,81.1,23,61.2,18.2c-17.4-4.1-35.2,4.7-42.4,21"/>
	<path id="Tracé_128" d="M39.9,41.9c0,0,12.7-6,24.5,2.6c0,0,0.7,1-1.3,0.9c-6.5-4.2-14.6-5.4-22-3.2"/>
	<path id="Tracé_129" d="M86.1,56.6c0,0-4.7-11.7-17.1-11.3c0,0-1,0.4,0.3,1.5c6.6,0.1,12.6,3.7,15.9,9.4"/>
	<path id="Tracé_130" class="st0" d="M20.6,41.1c-0.9-1.3-2.2-2.3-3.7-2.8C13.1,37,9,38.9,7.7,42.7c-1.3,3.7,0.6,7.8,4.3,9.2
		c0.1,0,0.2,0.1,0.3,0.1c1.1,0.4,2.2,0.5,3.3,0.3"/>
	<path id="Tracé_131" class="st0" d="M83,75.5c0.6,0.4,1.3,0.8,1.9,1c3.7,1.4,7.8-0.5,9.2-4.2S93.7,64.4,90,63
		c-0.1-0.1-0.3-0.1-0.4-0.2c-0.3-0.1-0.6-0.2-0.9-0.2"/>
	<path id="Tracé_132" class="st7" d="M40.1,37.1L23,62.2c0,0-6-10.3-4.2-15.7l2.5-3.6l-3.7-5.1c0,0,8.1-23.7,38-22.7
		c0,0,34.2,0.9,36.4,41.4c0,0-0.6,10.9-6.9,17.5c0,0-1.3-21-5.3-36.2c0,0-6.4,2.7-44.5-1.1"/>
	<path id="Tracé_133" class="st0" d="M40.1,37.1L23,62.2c0,0-6-10.3-4.2-15.7l2.5-3.6l-3.7-5.1c0,0,8.1-23.7,38-22.7
		c0,0,34.2,0.9,36.4,41.4c0,0-0.6,10.9-6.9,17.5c0,0-1.3-21-5.3-36.2c0,0-6.4,2.7-44.5-1.1"/>
	<path id="Tracé_134" d="M75.4,64.6c-0.8,2.5-3.6,3.9-6.1,3.1c-2.5-0.8-3.9-3.6-3.1-6.1c0.8-2.4,3.3-3.8,5.8-3.2
		C74.6,59.2,76.2,62,75.4,64.6"/>
	<path id="Tracé_135" d="M81.7,62.1c0,0-7.4-10.5-16.8-5.9l-0.6,1.4c0,0,9.5-5,16.5,6.6"/>
	<path id="Tracé_136" d="M44.6,56.2c-0.4,2.6,1.4,5.1,4,5.6c2.6,0.4,5.1-1.4,5.6-4c0.4-2.5-1.2-4.9-3.6-5.5
		C47.9,51.7,45.2,53.5,44.6,56.2"/>
	<path id="Tracé_137" d="M40.2,51c0,0,11.4-5.8,17.6,2.6l-0.2,1.5c0,0-6.1-8.8-17.7-1.8"/>
	<path id="Tracé_138" class="st0" d="M73.6,79.2c0,0-15.1,0.5-32.4-9.6"/>
</g>
</svg>
